<svg width="40" height="40" viewBox="0 0 92 108" fill="none" xmlns="http://www.w3.org/2000/svg">
<path d="M89.9167 26.7986C81.3322 37.7128 75.771 50.6939 73.7917 64.4378C72.038 77.0341 71.3751 86.5722 68.3383 82.7441C63.5906 76.7133 61.2168 71.7945 54.7368 71.4951C50.64 71.5523 46.5992 72.4551 42.8677 74.147C38.4408 75.8579 39.6384 84.1342 39.7453 90.5072C39.9671 92.6851 39.6665 94.8845 38.8685 96.923C36.6963 100.375 33.939 103.422 30.7205 105.926C29.8864 105.691 29.0524 105.456 28.2397 105.178C20.887 102.734 14.1573 98.7121 8.52189 93.3943C6.63993 75.9648 -4.0744 48.2486 6.38331 52.7611C11.1737 54.8997 13.847 56.2684 16.3064 56.4608H17.0335C19.6639 56.4608 22.3372 55.0066 27.427 51.6276C30.9343 49.2966 35.5751 46.0673 42.1405 41.7046C58.3511 31.0116 49.4759 26.0287 40.002 19.2921C34.6341 15.5068 29.0524 11.1227 27.8334 4.81386C33.359 2.90999 39.1618 1.93443 45.0063 1.92676C46.5888 1.92676 48.1928 1.92676 49.7539 2.11923C61.9207 3.21929 73.3277 8.51081 82.0253 17.0894C84.5455 19.5329 86.8099 22.2272 88.7832 25.1305C89.1895 25.6437 89.5745 26.2212 89.9167 26.7986Z" fill="#68E1FD" stroke="#003D31" stroke-width="3.20789" stroke-miterlimit="10"/>
</svg>
