<svg width="45" height="45" viewBox="0 0 94 98" fill="none" xmlns="http://www.w3.org/2000/svg">
<path d="M43.2785 70.4524L27.5707 84.4498V73.3942C27.5707 72.3491 27.1555 71.3468 26.4165 70.6078C25.6775 69.8687 24.6752 69.4536 23.6301 69.4536H9.15375C8.81573 69.4419 8.49401 69.3054 8.25069 69.0704C8.13067 68.9553 8.03493 68.8173 7.96913 68.6645C7.90333 68.5118 7.8688 68.3474 7.86757 68.1811V9.14007C7.89034 8.80776 8.03354 8.49516 8.27032 8.2609C8.50711 8.02663 8.82122 7.88678 9.15375 7.86757H59.3147V0H9.15375C6.7361 0.0248685 4.42429 0.995394 2.71338 2.70375C1.00247 4.4121 0.0284849 6.72245 0 9.14007V68.1811C0.0108231 70.6042 0.979142 72.9248 2.69385 74.637C4.40856 76.3491 6.73061 77.3139 9.15375 77.3211H19.7031V93.2615C19.7109 94.035 19.9468 94.7889 20.3814 95.4287C20.816 96.0685 21.4298 96.5658 22.1459 96.8581C22.862 97.1504 23.6485 97.2247 24.4067 97.0717C25.1649 96.9187 25.861 96.5452 26.4077 95.9981L47.3696 77.3211H83.9025C86.3233 77.3103 88.6419 76.3439 90.3536 74.6321C92.0654 72.9204 93.0318 70.6018 93.0426 68.1811V60.1904H85.2024V68.1811C85.2042 68.3487 85.1726 68.515 85.1093 68.6702C85.046 68.8254 84.9523 68.9664 84.8338 69.085C84.7153 69.2035 84.5743 69.2971 84.419 69.3604C84.2638 69.4237 84.0975 69.4554 83.9299 69.4536H45.8919C44.9282 69.4569 43.9988 69.8121 43.2785 70.4524Z" fill="#2ABCA0"/>
<path fill-rule="evenodd" clip-rule="evenodd" d="M40.5009 19.6074L27.8581 57.7959H37.8191L39.8852 50.8451H53.089L55.2098 57.7959H65.2256L52.5828 19.6074H40.5009ZM46.5213 27.2287L50.8451 42.868H42.1292L46.5213 27.2287Z" fill="#2ABCA0"/>
</svg>
