<svg width="80" height="20" viewBox="0 0 150 34" fill="none" xmlns="http://www.w3.org/2000/svg">
<path d="M12.104 33.8656C9.6176 33.8656 7.5232 33.4288 5.8208 32.5552C4.1184 31.6816 2.8304 30.3488 1.9568 28.5568C1.1056 26.7648 0.68 24.48 0.68 21.7024V12.3616C0.68 9.58397 1.1056 7.29917 1.9568 5.50717C2.8304 3.71517 4.1184 2.38237 5.8208 1.50877C7.5232 0.635173 9.6176 0.198372 12.104 0.198372V3.82717C9.6624 3.82717 7.8256 4.53277 6.5936 5.94397C5.384 7.33277 4.7792 9.51677 4.7792 12.496V21.568C4.7792 24.5472 5.384 26.7312 6.5936 28.12C7.8256 29.5312 9.6624 30.2368 12.104 30.2368V33.8656ZM20.0483 25.6V6.11197H13.1939V2.07997H31.3379V6.11197H24.4835V25.6H20.0483ZM32.1406 33.8656V30.2368C34.6046 30.2368 36.4414 29.5312 37.651 28.12C38.8606 26.7312 39.4654 24.5472 39.4654 21.568V12.496C39.4654 9.51677 38.8606 7.33277 37.651 5.94397C36.4414 4.53277 34.6046 3.82717 32.1406 3.82717V0.198372C34.6494 0.198372 36.7438 0.635173 38.4238 1.50877C40.1262 2.38237 41.403 3.71517 42.2542 5.50717C43.1278 7.29917 43.5646 9.58397 43.5646 12.3616V21.7024C43.5646 24.48 43.1278 26.7648 42.2542 28.5568C41.403 30.3488 40.1262 31.6816 38.4238 32.5552C36.7438 33.4288 34.6494 33.8656 32.1406 33.8656ZM55.548 26.0704C53.8904 26.0704 52.4344 25.7232 51.18 25.0288C49.9256 24.312 48.9512 23.3152 48.2568 22.0384C47.5624 20.7616 47.2152 19.2832 47.2152 17.6032V17.2C47.2152 15.4976 47.5624 14.008 48.2568 12.7312C48.9512 11.4544 49.9144 10.4688 51.1464 9.77437C52.3784 9.05757 53.7896 8.69917 55.38 8.69917C56.9256 8.69917 58.292 9.03517 59.4792 9.70717C60.6664 10.3568 61.596 11.2976 62.268 12.5296C62.94 13.7616 63.276 15.2064 63.276 16.864V18.0736H49.8696C49.9368 19.8432 50.508 21.232 51.5832 22.24C52.6584 23.2256 54.0024 23.7184 55.6152 23.7184C57.0264 23.7184 58.1128 23.3936 58.8744 22.744C59.636 22.0944 60.2184 21.3216 60.6216 20.4256L62.9064 21.5344C62.5704 22.2288 62.1 22.9232 61.4952 23.6176C60.9128 24.312 60.14 24.8944 59.1768 25.3648C58.236 25.8352 57.0264 26.0704 55.548 26.0704ZM49.9032 15.8896H60.588C60.4984 14.3664 59.972 13.1792 59.0088 12.328C58.068 11.4768 56.8584 11.0512 55.38 11.0512C53.8792 11.0512 52.6472 11.4768 51.684 12.328C50.7208 13.1792 50.1272 14.3664 49.9032 15.8896ZM74.5252 26.0704C72.4868 26.0704 70.762 25.6 69.3508 24.6592C67.962 23.7184 67.122 22.2288 66.8308 20.1904L69.3508 19.6192C69.53 20.6944 69.866 21.5456 70.3588 22.1728C70.8516 22.7776 71.4564 23.2144 72.1732 23.4832C72.9124 23.7296 73.6964 23.8528 74.5252 23.8528C75.7572 23.8528 76.7316 23.6064 77.4484 23.1136C78.1652 22.6208 78.5236 21.96 78.5236 21.1312C78.5236 20.28 78.1764 19.6864 77.482 19.3504C76.81 18.992 75.8804 18.7008 74.6932 18.4768L73.3156 18.2416C72.2628 18.0624 71.2996 17.7824 70.426 17.4016C69.5524 17.0208 68.858 16.5056 68.3428 15.856C67.8276 15.2064 67.57 14.3888 67.57 13.4032C67.57 11.9248 68.1412 10.7712 69.2836 9.94237C70.426 9.11357 71.938 8.69917 73.8196 8.69917C75.6788 8.69917 77.1796 9.12477 78.322 9.97597C79.4868 10.8048 80.2372 11.9808 80.5732 13.504L78.0868 14.1424C77.8852 12.9552 77.4036 12.1264 76.642 11.656C75.8804 11.1632 74.9396 10.9168 73.8196 10.9168C72.6996 10.9168 71.8148 11.1296 71.1652 11.5552C70.5156 11.9584 70.1908 12.5632 70.1908 13.3696C70.1908 14.1536 70.4932 14.736 71.098 15.1168C71.7252 15.4752 72.554 15.744 73.5844 15.9232L74.962 16.1584C76.1268 16.36 77.1684 16.64 78.0868 16.9984C79.0276 17.3344 79.7668 17.8272 80.3044 18.4768C80.8644 19.1264 81.1444 19.9776 81.1444 21.0304C81.1444 22.6432 80.5396 23.8864 79.33 24.76C78.1428 25.6336 76.5412 26.0704 74.5252 26.0704ZM91.3118 25.6C90.371 25.6 89.643 25.3424 89.1278 24.8272C88.635 24.312 88.3886 23.6064 88.3886 22.7104V11.488H83.4494V9.16957H88.3886V3.32317H91.043V9.16957H96.419V11.488H91.043V22.3072C91.043 22.9792 91.3678 23.3152 92.0174 23.3152H95.6798V25.6H91.3118ZM100.718 25.6V2.07997H103.373V11.7904H103.843C104.067 11.2976 104.403 10.8384 104.851 10.4128C105.322 9.96477 105.915 9.59517 106.632 9.30397C107.371 9.01277 108.301 8.86717 109.421 8.86717C110.653 8.86717 111.75 9.13597 112.714 9.67357C113.699 10.1888 114.483 10.9504 115.066 11.9584C115.648 12.944 115.939 14.176 115.939 15.6544V25.6H113.285V15.856C113.285 14.2208 112.87 13.0336 112.042 12.2944C111.235 11.5552 110.138 11.1856 108.749 11.1856C107.158 11.1856 105.859 11.7008 104.851 12.7312C103.866 13.7616 103.373 15.296 103.373 17.3344V25.6H100.718ZM128.851 26.0704C127.194 26.0704 125.738 25.7232 124.483 25.0288C123.229 24.312 122.254 23.3152 121.56 22.0384C120.866 20.7616 120.518 19.2832 120.518 17.6032V17.2C120.518 15.4976 120.866 14.008 121.56 12.7312C122.254 11.4544 123.218 10.4688 124.45 9.77437C125.682 9.05757 127.093 8.69917 128.683 8.69917C130.229 8.69917 131.595 9.03517 132.782 9.70717C133.97 10.3568 134.899 11.2976 135.571 12.5296C136.243 13.7616 136.579 15.2064 136.579 16.864V18.0736H123.173C123.24 19.8432 123.811 21.232 124.886 22.24C125.962 23.2256 127.306 23.7184 128.918 23.7184C130.33 23.7184 131.416 23.3936 132.178 22.744C132.939 22.0944 133.522 21.3216 133.925 20.4256L136.21 21.5344C135.874 22.2288 135.403 22.9232 134.798 23.6176C134.216 24.312 133.443 24.8944 132.48 25.3648C131.539 25.8352 130.33 26.0704 128.851 26.0704ZM123.206 15.8896H133.891C133.802 14.3664 133.275 13.1792 132.312 12.328C131.371 11.4768 130.162 11.0512 128.683 11.0512C127.182 11.0512 125.95 11.4768 124.987 12.328C124.024 13.1792 123.43 14.3664 123.206 15.8896ZM141.209 25.6V9.16957H143.796V11.1856H144.267C144.558 10.4688 145.006 9.94237 145.611 9.60637C146.216 9.27037 147.011 9.10237 147.996 9.10237H149.945V11.5216H147.828C146.641 11.5216 145.678 11.8576 144.939 12.5296C144.222 13.1792 143.864 14.1984 143.864 15.5872V25.6H141.209Z" fill="#1E1E1E"/>
</svg>
