<svg width="45" height="45" viewBox="0 0 94 98" fill="none" xmlns="http://www.w3.org/2000/svg">
<path d="M41.9815 14.5339C41.8045 14.711 41.705 14.9511 41.705 15.2015V18.2665H29.801L29.8421 18.2117C29.5917 18.2117 29.3515 18.3112 29.1745 18.4882C28.9974 18.6653 28.8979 18.9054 28.8979 19.1558V25.3131C28.9015 25.5611 29.0026 25.7977 29.1793 25.9718C29.3559 26.1459 29.594 26.2435 29.8421 26.2435H53.1027C52.8606 27.3714 52.5591 28.4858 52.1997 29.582C51.7521 30.9522 51.1938 32.2839 50.5304 33.5636C49.9042 34.7272 49.2144 35.8555 48.4643 36.9433L46.7266 39.2695C46.4573 38.8885 46.1969 38.5019 45.9455 38.11C44.1861 35.3661 42.8695 32.359 42.0471 29.199C42.045 29.1916 42.0428 29.1843 42.0406 29.177C42.0068 29.0675 41.9531 28.9651 41.8821 28.8751C41.8727 28.8631 41.8629 28.8513 41.8529 28.8398C41.7827 28.7593 41.6992 28.6913 41.6057 28.6391C41.5924 28.6316 41.5789 28.6245 41.5652 28.6177C41.4696 28.5702 41.3663 28.5395 41.26 28.527C41.2448 28.5252 41.2296 28.5238 41.2144 28.5227C41.1079 28.5155 41.0007 28.5267 40.8978 28.5559L35.0552 30.1841C34.9374 30.2173 34.8274 30.2733 34.7313 30.349C34.6352 30.4247 34.555 30.5187 34.4953 30.6254C34.4356 30.7322 34.3975 30.8497 34.3832 30.9712C34.3689 31.0927 34.3787 31.2158 34.4121 31.3335C35.1547 34.0539 36.1868 36.6869 37.4907 39.1874C38.6342 41.2892 39.8997 43.3223 41.2808 45.2762C39.6252 46.8634 38.0927 48.2316 36.5055 49.5999C34.6447 51.0913 32.8112 52.528 30.5399 54.0879C30.4306 54.159 30.3372 54.2519 30.2656 54.3609C30.194 54.4699 30.1457 54.5925 30.1239 54.7211C30.102 54.8496 30.1071 54.9813 30.1386 55.1078C30.1702 55.2343 30.2276 55.3529 30.3072 55.4561L33.769 60.464C33.8401 60.5733 33.933 60.6667 34.042 60.7383C34.1509 60.8098 34.2736 60.8581 34.4021 60.88C34.5306 60.9018 34.6624 60.8968 34.7889 60.8653C34.7968 60.8633 34.8047 60.8612 34.8125 60.8591C34.9302 60.8265 35.0405 60.7713 35.1373 60.6966C35.2809 60.5974 35.4233 60.4986 35.5643 60.4003C37.6802 58.9245 39.5089 57.5359 41.2535 56.0992C41.3704 55.9975 41.4873 55.8953 41.6043 55.7926C42.3064 55.1762 43.011 54.5407 43.7341 53.8862C43.8546 53.7771 43.9756 53.6675 44.0972 53.5573C44.1801 53.4822 44.2634 53.4068 44.3469 53.3312C44.9314 52.8019 45.5305 52.2605 46.1519 51.7071C47.8446 53.7011 49.6733 55.5756 51.625 57.317C54.026 59.3672 56.5782 61.2333 59.2599 62.8995C59.3657 62.9773 59.4865 63.0322 59.6147 63.0607C59.7429 63.0891 59.8757 63.0905 60.0045 63.0648C60.0125 63.0632 60.0206 63.0615 60.0286 63.0596C60.1484 63.0324 60.262 62.982 60.3626 62.9111C60.3761 62.9017 60.3892 62.8919 60.4021 62.8818C60.4923 62.811 60.569 62.7243 60.6282 62.6259L63.8984 57.5222C63.9066 57.5093 63.9145 57.4962 63.9221 57.483C63.975 57.3901 64.0116 57.2887 64.0301 57.1832C64.0327 57.1681 64.035 57.153 64.0369 57.1378C64.0501 57.0317 64.045 56.924 64.0217 56.8195C64.02 56.812 64.0182 56.8046 64.0164 56.7972C63.9887 56.6859 63.9406 56.5807 63.8745 56.4868C63.8657 56.4743 63.8566 56.4621 63.8472 56.45C63.7815 56.3657 63.7016 56.2933 63.611 56.236C63.458 56.1407 63.3055 56.0446 63.1534 55.9478C60.8722 54.4955 58.6977 52.8817 56.6465 51.1187C56.4208 50.9163 56.197 50.7117 55.9751 50.5052C54.422 49.0593 52.9643 47.5137 51.6113 45.8782C51.7464 45.7192 51.8805 45.5607 52.0134 45.4026C52.9439 44.2957 53.8193 43.2032 54.6215 42.006C54.7556 41.8183 54.8882 41.6295 55.0194 41.4398C55.9374 40.1115 56.7821 38.7338 57.5496 37.3128C57.6691 37.0852 57.7861 36.8564 57.9005 36.6264C58.7019 35.0163 59.3805 33.3476 59.9304 31.6345V31.5524C59.999 31.3354 60.0655 31.1179 60.1299 30.8997C60.581 29.3727 60.9304 27.8172 61.1755 26.2435L63.2963 26.2435C63.5431 26.2435 63.7798 26.1455 63.9543 25.971C63.9761 25.9492 63.9967 25.9264 64.0161 25.9027C64.1517 25.7372 64.2268 25.529 64.2268 25.3131V19.2106C64.2269 19.2029 64.2269 19.1952 64.2268 19.1875C64.2257 19.072 64.203 18.9576 64.1599 18.8503C64.157 18.8431 64.1541 18.836 64.151 18.829C64.1054 18.7229 64.0403 18.6262 63.9591 18.5438C63.9483 18.5328 63.9372 18.5221 63.9259 18.5117C63.8466 18.4388 63.7552 18.3802 63.6556 18.3386C63.6414 18.3326 63.627 18.327 63.6125 18.3218C63.5113 18.2852 63.4043 18.2664 63.2963 18.2665H49.942V15.2015C49.9421 15.1938 49.9421 15.1861 49.942 15.1784C49.9409 15.0629 49.9182 14.9486 49.8751 14.8413C49.8723 14.8341 49.8693 14.827 49.8663 14.8199C49.8206 14.7138 49.7555 14.6171 49.6744 14.5347C49.6635 14.5238 49.6525 14.5131 49.6411 14.5027C49.5618 14.4298 49.4704 14.3712 49.3708 14.3295C49.3566 14.3236 49.3422 14.318 49.3278 14.3128C49.2265 14.2762 49.1195 14.2574 49.0116 14.2574H42.6491C42.3987 14.2574 42.1586 14.3569 41.9815 14.5339Z" fill="#2ABCA0"/>
<path fill-rule="evenodd" clip-rule="evenodd" d="M45.714 77.3211L66.7444 96.0118L66.676 95.957C67.2245 96.5023 67.9214 96.874 68.6797 97.026C69.438 97.178 70.2243 97.1034 70.9406 96.8117C71.6568 96.5199 72.2714 96.0239 72.7077 95.3853C73.144 94.7467 73.3828 93.9938 73.3942 93.2205V77.3211H83.9299C86.3509 77.3068 88.6688 76.3397 90.382 74.6291C92.0951 72.9185 93.0657 70.602 93.0837 68.1811V9.18112C93.0683 6.89013 92.1943 4.68819 90.6345 3.0102L90.3745 2.73655C88.6738 1.00639 86.3559 0.0221274 83.9299 0H9.15375C6.87171 0.0195658 4.6798 0.893399 3.0102 2.44921L2.73655 2.6955C1.00559 4.40124 0.0215045 6.72367 0 9.15375V68.1811C0.0179448 70.602 0.988546 72.9185 2.70172 74.6291C4.4149 76.3397 6.73281 77.3068 9.15375 77.3211H45.714ZM65.513 84.4499L49.8189 70.4524C49.1006 69.8088 48.1699 69.4531 47.2054 69.4536H9.15375C8.98614 69.4554 8.81984 69.4237 8.66463 69.3604C8.50942 69.2971 8.36841 69.2035 8.24988 69.085C8.13135 68.9664 8.03769 68.8254 7.97439 68.6702C7.91109 68.515 7.87943 68.3487 7.88126 68.1811V9.09902C7.88324 8.93282 7.91811 8.76866 7.98387 8.61602C8.04963 8.46337 8.14496 8.32525 8.26437 8.20964H8.41489C8.60992 7.99854 8.87005 7.85884 9.15375 7.81284H83.9299C84.265 7.83156 84.5815 7.97278 84.8193 8.20964L84.9151 8.36015C85.097 8.58609 85.2024 8.864 85.2161 9.15375V68.1811C85.2131 68.3484 85.1764 68.5134 85.1083 68.6662C85.0401 68.819 84.9418 68.9565 84.8193 69.0705C84.7037 69.1899 84.5656 69.2852 84.4129 69.351C84.2603 69.4167 84.0961 69.4516 83.9299 69.4536H69.4536C68.4085 69.4536 67.4061 69.8687 66.6671 70.6078C65.9281 71.3468 65.513 72.3491 65.513 73.3942V84.4499Z" fill="#2ABCA0"/>
</svg>
