<svg width="70" height="70" viewBox="0 0 148 148" fill="none" xmlns="http://www.w3.org/2000/svg">
<path d="M138.913 42.89C137.749 40.4371 136.435 38.0587 134.978 35.7685C134.507 34.9844 133.994 34.1931 133.438 33.3947C130.755 29.4856 127.681 25.8598 124.263 22.5734C112.445 10.9258 96.9484 3.74437 80.4221 2.25682C78.2835 2.08573 76.1449 2.00019 74.0063 2.00019C66.003 1.98203 58.0527 3.29746 50.4818 5.89242L48.942 6.44845C37.4899 10.6872 27.3061 17.7729 19.3508 27.0375C11.3955 36.302 5.93095 47.44 3.47235 59.4014C1.01376 71.3627 1.64215 83.7531 5.29829 95.4043C8.95443 107.056 15.5178 117.584 24.3696 125.996C32.0438 133.293 41.2389 138.8 51.2945 142.121C52.3851 142.484 53.433 142.826 54.6306 143.147C56.1063 143.554 57.6247 143.917 59.1217 144.238C64.0425 145.286 69.0606 145.809 74.0918 145.799C86.2335 145.785 98.174 142.698 108.801 136.824C119.427 130.951 128.394 122.483 134.865 112.21C141.336 101.936 145.101 90.1917 145.809 78.0707C146.516 65.9497 144.144 53.8469 138.913 42.89V42.89Z" stroke="#003D31" stroke-width="3.20789" stroke-miterlimit="10" stroke-dasharray="14.97 14.97"/>
</svg>
